<?xml version="1.0" encoding="UTF-8"?>
<!DOCTYPE svg PUBLIC "-//W3C//DTD SVG 1.1//EN" "http://www.w3.org/Graphics/SVG/1.1/DTD/svg11.dtd">
<svg xmlns="http://www.w3.org/2000/svg" version="1.1" width="512px" height="512px" style="shape-rendering:geometricPrecision; text-rendering:geometricPrecision; image-rendering:optimizeQuality; fill-rule:evenodd; clip-rule:evenodd" xmlns:xlink="http://www.w3.org/1999/xlink">
<g><path style="opacity:0.998" fill="#fbe519" d="M 129.5,402.5 C 119.102,398.435 112.102,391.101 108.5,380.5C 107.284,370.552 109.117,361.218 114,352.5C 120.667,345.833 127.333,339.167 134,332.5C 136.878,328.951 138.878,324.951 140,320.5C 136.033,292.667 140.699,266.333 154,241.5C 167.484,221.352 185.65,207.185 208.5,199C 209.667,197.833 210.833,196.667 212,195.5C 206.938,162.476 213.271,131.809 231,103.5C 253.879,74.311 284.045,59.311 321.5,58.5C 371.53,61.4416 410.03,83.7749 437,125.5C 459.81,167.044 460.144,208.71 438,250.5C 422.728,274.408 401.228,289.908 373.5,297C 356.618,302.285 339.618,302.785 322.5,298.5C 318.071,299.092 314.905,301.425 313,305.5C 297.162,345.645 267.662,368.145 224.5,373C 213.864,372.172 203.197,371.839 192.5,372C 187.72,373.556 183.387,375.889 179.5,379C 174.533,384.969 169.199,390.635 163.5,396C 153.19,403.281 141.856,405.448 129.5,402.5 Z"/></g>
<g><path style="opacity:0.976" fill="#c66829" d="M 108.5,380.5 C 112.102,391.101 119.102,398.435 129.5,402.5C 124.036,408.465 118.37,414.298 112.5,420C 108.705,420.837 105.039,420.504 101.5,419C 98.3333,415.833 95.1667,412.667 92,409.5C 90,405.167 90,400.833 92,396.5C 97.3686,390.964 102.869,385.63 108.5,380.5 Z"/></g>
<g><path style="opacity:0.921" fill="#ff7e26" d="M 77.5,416.5 C 83.0977,420.091 88.431,424.091 93.5,428.5C 86.2582,436.446 78.2582,444.279 69.5,452C 72.319,454.575 75.319,456.908 78.5,459C 79.4506,459.718 79.6172,460.551 79,461.5C 55.3789,476.389 31.8789,491.389 8.5,506.5C 8.16667,506.167 7.83333,505.833 7.5,505.5C 19.6391,492.172 32.3058,478.672 45.5,465C 41.8333,462 38.1667,459 34.5,456C 48.4035,442.259 62.7368,429.092 77.5,416.5 Z"/></g>
</svg>
